<?xml version="1.0" encoding="utf-8"?>
<!-- Generator: Adobe Illustrator 16.0.0, SVG Export Plug-In . SVG Version: 6.00 Build 0)  -->
<svg version="1.2" baseProfile="tiny" id="Layer_1" xmlns="http://www.w3.org/2000/svg" xmlns:xlink="http://www.w3.org/1999/xlink"
	 x="0px" y="0px" width="283.465px" height="283.465px" viewBox="0 0 283.465 283.465" xml:space="preserve">
<g>
	<path fill-rule="evenodd" d="M187.262,173.805c0.692,0.08,0.998,0.292,1.038,0.89c0.118,1.452,0.208,3.992,0.034,5.396
		c-0.064,0.523-0.33,0.85-1.047,0.939c-0.909,0.107-2.91,0.029-4.086,0.054c0.005-2.11,0.01-4.856,0.005-7.356
		C184.574,173.756,186.625,173.727,187.262,173.805L187.262,173.805z M179.723,184.201c3.305,0,7.164,0.286,9.575-0.213
		c0.86-0.178,1.739-0.341,2.332-1.408c0.504-0.929,0.494-9.081,0-10.316c-0.138-0.336-0.702-1.221-2.485-1.492
		c-2.085-0.326-6.151-0.193-9.422-0.193C179.742,171.799,179.742,180.1,179.723,184.201L179.723,184.201z"/>
	<path fill-rule="evenodd" d="M201.68,170.683c2.313-0.563,6.562-0.524,8.143,0.104c0.879,0.351,1.497,0.643,1.675,1.754
		c0.272,1.774,0.321,7.461,0.079,9.294c-0.099,0.736-0.099,1.873-2.169,2.357c-2.332,0.533-6.433,0.414-8.173-0.129
		c-0.523-0.168-1.649-0.588-1.777-2.303c-0.139-1.907-0.258-7.945,0.107-9.22C199.866,171.453,200.068,171.072,201.68,170.683
		L201.68,170.683z M203.844,173.617c-0.479,0.158-0.775,0.207-0.879,0.859s-0.1,4.526,0.098,6.019
		c0.055,0.346,0.238,0.563,0.608,0.712c0.696,0.276,2.56,0.172,3.612,0.049c0.365-0.039,0.622-0.168,0.73-0.701
		c0.218-1.048,0.178-4.467-0.01-6.187c-0.068-0.632-0.607-0.722-0.711-0.751C206.531,173.36,204.723,173.32,203.844,173.617
		L203.844,173.617z"/>
	<polygon fill-rule="evenodd" points="193.912,170.584 197.445,170.584 197.445,184.221 193.912,184.221 193.912,170.584 	"/>
	<path fill-rule="evenodd" d="M168.729,170.584h-3.512c0,0,0.004,9.891,0.01,10.983c0,1.733,0.988,2.563,2.668,2.851
		c2.723,0.475,5.969,0.262,7.174-0.02c1.205-0.297,2.223-0.682,2.223-2.361c-0.01-2.718,0.011-10.145-0.014-11.453
		c-1.23,0-2.525-0.025-3.336,0c-0.004,1.15,0,8.577,0,9.199c0,0.633,0.05,1.65-1.205,1.68c-1.256,0.021-2.382,0.104-2.905-0.029
		c-0.524-0.129-1.077-0.074-1.097-1.284C168.715,178.993,168.729,170.584,168.729,170.584L168.729,170.584z"/>
	<polygon fill-rule="evenodd" points="137.328,170.578 140.86,170.578 140.86,180.762 146.277,180.762 146.277,184.221 
		137.328,184.221 137.328,170.578 	"/>
	<polygon fill-rule="evenodd" points="107.277,170.584 110.837,170.584 110.837,184.23 107.255,184.23 107.277,170.584 	"/>
	<polygon fill-rule="evenodd" points="87.018,170.574 90.58,170.574 90.58,184.211 87.045,184.211 87.018,170.574 	"/>
	<path fill-rule="evenodd" d="M159.445,179.195c-1.047,0-2.1,0-3.143,0c0.504-1.744,1.146-3.879,1.591-5.42
		C158.418,175.371,158.941,177.373,159.445,179.195L159.445,179.195z M151.303,184.211c1.393,0,2.777,0.004,3.508,0.004
		c0.336-1.15,0.598-2.113,0.811-2.796c0.785,0,3.953-0.005,4.575-0.005c0.188,0.657,0.667,2.421,0.815,2.807
		c1.097,0,2.762,0,3.375,0c-0.316-1.176-3.425-12.115-4.003-13.637c-1.097,0.029-3.854-0.02-5.03,0.01
		C154.727,172.58,151.748,182.719,151.303,184.211L151.303,184.211z"/>
	<polygon fill-rule="evenodd" points="112.668,170.574 122.508,170.574 122.508,174.111 119.288,174.082 119.288,184.23 
		115.805,184.23 115.805,174.111 112.668,174.111 112.668,170.574 	"/>
	<path fill-rule="evenodd" d="M126.326,170.584c1.179-0.02,3.859,0.029,4.956,0c0.575,1.521,3.688,12.455,4.002,13.637
		c-0.494-0.006-2.258,0-3.353,0c-0.146-0.386-0.627-2.025-0.811-2.684c-0.627,0-3.794,0.006-4.58,0.006
		c-0.209,0.682-0.444,1.521-0.785,2.668c-0.733,0-2.092,0-3.48,0C122.72,182.719,125.697,172.58,126.326,170.584L126.326,170.584z
		 M128.819,173.875c-0.447,1.541-1.087,3.676-1.599,5.414c1.048,0,2.098,0,3.143,0C129.861,177.461,129.34,175.471,128.819,173.875
		L128.819,173.875z"/>
	<path fill-rule="evenodd" d="M80.135,173.814c0.693,0.084,0.998,0.292,1.042,0.891c0.111,1.452,0.202,4.002,0.03,5.4
		c-0.064,0.527-0.326,0.844-1.048,0.938c-0.907,0.104-2.907,0.03-4.083,0.055c0.004-2.114,0.014-4.856,0.004-7.357
		C77.449,173.766,79.5,173.736,80.135,173.814L80.135,173.814z M72.598,184.211c3.305,0,7.166,0.286,9.58-0.208
		c0.852-0.178,1.734-0.341,2.326-1.413c0.508-0.929,0.497-9.071,0-10.316c-0.133-0.336-0.701-1.215-2.486-1.492
		c-2.086-0.326-6.145-0.188-9.42-0.188C72.614,171.814,72.614,180.109,72.598,184.211L72.598,184.211z"/>
	<path fill-rule="evenodd" d="M95.053,170.599c2.11-0.528,6.466-0.479,8,0.054c0.828,0.287,1.756,0.712,1.947,2.17
		c0.101,0.766,0.104,1.773,0.131,2.387c-1.189,0-2.369,0-3.561,0c0-0.263-0.092-0.662-0.139-0.93
		c-0.054-0.281-0.172-0.603-0.881-0.721c-0.578-0.1-2.057-0.188-3.039-0.055c-0.862,0.123-1.125,0.415-1.176,1.15
		c-0.134,1.889-0.06,4.773,0.024,5.707c0.066,0.731,0.554,0.84,0.971,0.914c0.595,0.113,2.124,0.148,3.036,0.029
		c0.654-0.088,0.937-0.128,1.1-0.918c0.055-0.268,0.104-0.691,0.104-1.098c-0.758-0.059-1.961,0.03-2.72-0.049
		c0-0.717-0.005-1.537-0.005-2.254c2.027,0,4.18,0,6.205,0c0.252,1.305,0.188,4.734-0.234,5.861
		c-0.186,0.493-0.773,0.958-1.255,1.155c-1.556,0.618-5.727,0.712-8.063,0.326c-0.832-0.134-1.521-0.439-1.885-0.751
		c-0.265-0.217-0.566-0.701-0.627-1.097c-0.245-1.552-0.316-2.954-0.319-5.786c0-0.914,0.163-3.641,0.265-4.155
		C93.203,171.146,93.937,170.881,95.053,170.599L95.053,170.599z"/>
	<path fill-rule="evenodd" d="M94.033,130.37c0,6.725,0,20.865,0,22.431c0,2.091-1.176,3.509-3.325,3.509
		c-1.937-0.005-3.089-1.754-3.089-3.118c0-0.414-0.051-12.522-0.051-23.16c0-1.9,1.57-3.17,3.35-3.17
		C92.699,126.862,94.033,128.426,94.033,130.37L94.033,130.37z M84.611,130.37c0,18.513,0.027,19.907,0.027,23.217
		c0,1.284,0.834,3.143,1.961,4.081c1.124,0.943,2.236,1.602,4.133,1.602c2.065,0,3.225-0.618,4.504-1.809
		c1.234-1.146,1.806-2.697,1.806-4.525c0-1.236-0.044-17.499-0.044-22.854c0-2.802-2.229-6.201-5.922-6.201
		C87.727,123.88,84.611,125.896,84.611,130.37L84.611,130.37z"/>
	<path fill-rule="evenodd" d="M202.653,119.307c2.04,0.055,5.924,1.248,5.954,5.49c0.049,4.679-0.04,7.866-0.04,9.057
		c0,1.2,0,2.146-1.517,2.092c-1.359-0.044-5.426-0.049-6.334-0.054c-0.766-0.01-1.631-0.262-1.596-1.725
		c0.029-0.85,0.275-1.813,0.029-4.61c-0.237-2.582-1.878-5.536-5.445-5.442c-2.811,0.072-5.346,1.764-5.604,5.813
		c-0.098,1.532,0.011,16.852-0.039,23.743c-0.029,3.444,2.876,5.825,5.691,5.835c2.283,0,4.349-1.734,5.08-3.513
		c0.711-1.754,0.365-6.388,0.365-6.596c0-1.106,0.426-1.62,1.413-1.62c1.019,0,5.366-0.021,5.86-0.021
		c0.617,0,2.253-0.228,2.253,1.902c0,2.416-0.06,5.263-0.05,7.905c0,3.903-2.723,6.023-4.763,6.023c-1.452,0-18.063,0-19.428,0
		c-4.392,0-5.776-3.756-5.776-5.885c0-7.822,0.074-30.028,0.021-32.803s2.584-5.593,5.262-5.643
		C186.654,119.208,200.612,119.258,202.653,119.307L202.653,119.307z M176.64,121.183c-1.116,2.255-0.841,3.562-0.841,4.607
		c0,6.74,0.011,31.019,0.021,32.259c0.054,5.133,4.378,8.479,8.913,8.424c5.678-0.029,16.71,0,18.943,0
		c4.664,0,7.926-4.545,7.926-7.807c-0.006-3.873,0.059-8.903,0.059-10.316c0-2.193-1.279-3.606-2.826-3.557
		c-2.707,0.088-7.125-0.061-10.064-0.021c-2.169,0.03-2.555,2.021-2.555,3.997c0,2.926,0.158,3.35,0.158,4.402
		c0,1.201-0.523,3.291-2.51,3.291c-1.991,0-2.781-1.443-2.777-3.662c0-1.397-0.004-21.114-0.049-22.72
		c-0.039-1.235,0.83-3.049,2.658-3.026c1.631,0.025,2.539,1.346,2.52,2.557c-0.039,2.298-0.044,3.219-0.049,5.917
		c-0.01,2.045,1.305,3.35,3.191,3.35c1.151,0,7.025-0.022,9.121-0.022c2.09,0,3.123-1.257,3.073-3.698
		c-0.05-2.456-0.03-4.202-0.03-10.309c0-3.091-2.282-8.646-8.606-8.646c-2.145-0.002-14.813-0.042-19.003,0
		C180.365,116.231,177.895,118.64,176.64,121.183L176.64,121.183z"/>
	<path fill-rule="evenodd" d="M165.641,119.3c1.482,0,1.468,1.186,1.473,1.517c0-1.131,0,4.345,0,5.393
		c0,1.045-0.217,1.346-1.521,1.309c-1.833-0.054-12.584,0.018-14.21,0.018c-3.687,0-5.055,3.426-5.001,4.795
		c0.104,2.745,2.036,5.049,5.238,5.102c3.191,0.052,8.266-0.022,10.83-0.022c4.397,0,6.295,2.152,6.295,6.601
		c0,5.119-0.01,11.146-0.01,13.706c0,4.714-4.205,5.79-5.307,5.79c-1.098,0-22.336-0.029-23.746-0.029
		c-1.416,0-1.361-0.992-1.361-2.193c0-1.205-0.037-2.5-0.021-4.506c0-1.098,0.803-1.463,1.748-1.463c5.109,0,12.669,0,15.812,0
		c1.62,0,4.763-1.363,4.708-4.921c-0.024-1.784-1.566-4.817-4.708-4.817c-2.238,0-6.482,0-11.31,0
		c-3.81-0.005-6.176-2.357-6.176-6.072c0-3.716,0.017-11.515,0.02-14.45c-0.006-3.227,2.512-5.756,5.736-5.756
		C149.465,119.29,163.289,119.3,165.641,119.3L165.641,119.3z M135.314,124.409c-0.008,3.32,0.02,12.743,0.02,14.573
		c0,6.493,4.254,9.575,9.16,9.575c4.871,0,8.168,0,10.523,0c2.357,0,2.619,1.156,2.619,1.996c0,0.83-0.78,1.828-2.041,1.828
		c-1.318,0-16.376,0-17.695,0c-1.361,0-2.616,1.374-2.616,2.826c-0.007,2.343,0,6.182,0,8.326c0,2.148,2.248,2.979,3.296,2.979
		c1.047,0,21.863-0.059,26.122-0.01c2.427,0.03,4.585-2.025,5.228-2.91c0.465-0.646,1.838-2.524,1.838-5.4
		c0-5.988,0.02-17.317-0.045-14.916c0.074-2.666-0.987-4.842-2.208-6.124c-0.914-0.961-2.925-2.774-6.329-2.774
		s-8.83,0.002-11.938,0c-1.344,0-1.833-1.05-1.833-2.095c0-0.731,0.544-1.781,2.204-1.781c5.163,0,14.496,0,15.752,0
		c1.254,0,2.544-1.117,2.638-2.513c0.099-1.381-0.01-7.068-0.02-8.792c-0.005-1.665-1.067-3.007-4.052-2.952
		c-1.739,0.027-15.06,0.052-22.017,0C139.479,116.202,135.314,119.987,135.314,124.409L135.314,124.409z"/>
	<path fill-rule="evenodd" d="M126.49,119.3c0.622-0.002,1.432,0.388,1.432,1.537c0,32.287,0.03,38.353,0.03,40.601
		c0,2.254-0.837,2.041-1.411,2.041c-0.575,0-6.195,0.029-7.746,0.029c-0.836,0-1.416-0.395-1.416-1.808
		c0-3.765,0.055-38.838,0.055-40.622c-0.016-1.126,0.266-1.779,1.516-1.779C119.047,119.3,124.039,119.3,126.49,119.3L126.49,119.3z
		 M114.555,119.456c0,1.257,0.02,42.308,0.02,43.46c0,2.41,1.404,3.596,3.279,3.596c5,0,8.896,0,10.415,0
		c1.882,0,2.671-2.06,2.618-3.557c-0.037-1.047-0.055-25.33-0.055-43.028c0-2.747-1.484-3.738-3.162-3.738
		c-1.778,0-6.766,0.047-10.133,0.055C115.215,116.264,114.555,118.198,114.555,119.456L114.555,119.456z"/>
	<path fill-rule="evenodd" d="M183.34,107.679c-1.048,0-2.096,0-3.143,0c0.514-1.744,1.15-3.874,1.596-5.42
		C182.316,103.855,182.836,105.854,183.34,107.679L183.34,107.679z M175.201,112.798c1.389,0,2.624,0,3.41,0
		c0.34-1.154,0.696-2.189,0.904-2.871c0.79,0,3.928,0,4.555,0c0.188,0.655,0.691,2.463,0.84,2.851c1.098,0,2.807-0.005,3.424,0
		c-0.316-1.178-3.547-12.258-4.125-13.78c-1.098,0.027-3.73-0.022-4.911,0.002C178.625,101.142,175.602,111.457,175.201,112.798
		L175.201,112.798z"/>
	<path fill-rule="evenodd" d="M171.511,102.58c0.391,0.292,0.524,2.67,0.079,3.325s-3.073,0.422-4.451,0.42
		c0.024-1.213-0.025-2.959,0-4.135C169.179,102.19,170.774,102.037,171.511,102.58L171.511,102.58z M163.709,112.773
		c1.111,0,2.317,0.025,3.43,0.025c0-0.993-0.025-2.399,0-3.236c0.494,0.04,2.119,0.027,3.344-0.002
		c2.036-0.044,3.909-0.274,4.477-1.411c0.52-1.038,0.445-3.928,0.342-5.312c-0.069-0.929-0.025-1.789-0.578-2.515
		c-0.331-0.44-0.604-0.801-1.552-1.137c-1.566-0.558-6.284-0.19-9.437-0.19C163.744,103.321,163.709,111.59,163.709,112.773
		L163.709,112.773z"/>
	<path fill-rule="evenodd" d="M143.605,98.998c0.81,0,3.389-0.002,5.138-0.002c1.67,4.708,3.028,8.525,3.528,10.018
		c0.811-2.199,1.66-4.615,3.448-10.015c1.69-0.02,3.438-0.002,5.114-0.002c0,4.689-0.006,12.5-0.006,13.777
		c-0.706,0.027-1.906,0.02-3.428,0c-0.006-1.423-0.006-7.485,0-9.857c-0.683,1.828-1.671,4.691-3.43,9.857
		c-1.146,0-2.203,0.025-3.35,0.025c-1.482-4.18-2.876-8.13-3.454-9.934c-0.024,0.889-0.005,6.692-0.005,9.909
		c-1.127,0-2.421,0.025-3.557,0.025C143.615,108.608,143.585,100.288,143.605,98.998L143.605,98.998z"/>
	<path fill-rule="evenodd" d="M105.995,101.997c1.307-0.027,1.368,0.956,1.386,1.388c0.035,0.801,0.032,57.357,0.032,58.344
		c0,1.206-0.347,1.788-1.67,1.778c-13.299-0.054-23.383-0.029-25.372-0.029c-2.46,0-5.654-1.957-5.654-5.543
		c-0.057-17.291,0.092-31.805,0.052-33.586c-0.052-2.406,2.577-5.109,5.313-5.104c4.113,0.01,10.915,0.007,13.637,0
		c2.043-0.002,3.304-0.998,3.271-3.481c0.072-6.352,0.074-9.397,0.027-12.065c-0.037-2.147,1.426-1.67,1.857-1.729
		C98.813,101.982,104.164,101.945,105.995,101.997L105.995,101.997z M94.033,102.024c0.066,1.791,0,4.076,0,12.93
		c0.01,0.768-0.546,1.235-1.487,1.235c-0.944,0-8.065-0.02-12.698,0.02c-4.454,0.027-8.088,4.435-8.088,7.567
		c0.037,16.189-0.027,29.376-0.027,34.05c0,4.783,3.214,7.125,5.547,8.063c1.593,0.633,3.846,0.622,6.074,0.622
		c3.014,0,16.235-0.029,23.165,0c4.228,0.025,3.97-3.111,3.97-4.125c0-0.677-0.02-13.315-0.02-60.205c0-0.313,0-3.191-3.14-3.191
		c-1.937,0-7.088-0.097-10.68,0C95.567,99.015,93.957,100.12,94.033,102.024L94.033,102.024z"/>
	<path fill-rule="evenodd" d="M137.322,102.148c0.102,0.034,0.467,0.096,0.536,0.726c0.188,1.719,0.229,5.141,0.013,6.184
		c-0.113,0.536-0.368,0.662-0.734,0.707c-1.052,0.124-2.912,0.225-3.609-0.052c-0.37-0.146-0.553-0.358-0.607-0.709
		c-0.197-1.497-0.205-5.364-0.099-6.016c0.104-0.655,0.302-0.729,0.759-0.84C134.627,101.891,136.663,101.928,137.322,102.148
		L137.322,102.148z M129.42,101.048c-0.361,1.275-0.248,7.31-0.106,9.215c0.126,1.722,1.257,2.137,1.781,2.302
		c1.733,0.546,5.833,0.667,8.165,0.128c2.072-0.481,2.072-1.621,2.174-2.354c0.239-1.831,0.192-7.518-0.082-9.292
		c-0.178-1.112-0.793-1.406-1.675-1.754c-1.576-0.625-5.833-0.669-8.14-0.104C129.926,99.579,129.721,99.964,129.42,101.048
		L129.42,101.048z"/>
	<path fill-rule="evenodd" d="M121.596,98.771c0.813-0.024,2.08,0.055,3.225,0.312c1.289,0.292,2.139,1.038,2.245,1.915
		c0.081,0.699,0.155,1.875,0.155,3.167c-1.15,0-2.646,0.025-3.482-0.002c-0.08-0.761,0.023-1.344-0.232-1.724
		c-0.336-0.504-4.467-0.657-4.869,0c-0.195,0.311-0.179,1.102-0.208,1.517c-0.087,1.126-0.175,4.701,0.231,5.366
		c0.4,0.647,4.213,0.731,4.738,0.104c0.235-0.282,0.322-1.263,0.34-1.7c1.012,0,2.355,0,3.482,0c0,1.008,0.05,1.971-0.143,2.767
		c-0.299,1.25-0.65,1.695-1.584,1.999c-1.689,0.541-6.487,0.759-8.602,0.032c-0.922-0.316-1.688-0.514-1.844-1.999
		c-0.43-4.125-0.074-8.239,0.027-9.422c0.131-1.517,1.68-1.966,2.902-2.125C119.252,98.808,120.704,98.8,121.596,98.771
		L121.596,98.771z"/>
	<path fill-rule="evenodd" d="M195.375,98.83c0.811-0.03,2.08,0.054,3.227,0.309c1.285,0.296,2.14,1.038,2.243,1.915
		c0.084,0.702,0.158,1.851,0.158,3.143c-1.151,0-2.48,0-3.538,0c0-0.788,0.006-1.126-0.183-1.7c-0.178-0.578-4.333-0.687-4.63-0.133
		c-0.178,0.324-0.311,0.474-0.37,1.492c-0.064,1.126-0.247,4.857,0.158,5.524c0.399,0.647,4.21,0.731,4.738,0.106
		c0.237-0.282,0.296-1.29,0.315-1.732c1.014,0,2.357,0.005,3.484,0.005c-0.109,1.008-0.08,1.764-0.223,2.789
		c-0.123,0.862-0.549,1.694-1.482,1.996c-1.689,0.541-6.487,0.761-8.602,0.037c-0.92-0.319-1.689-0.514-1.838-1.999
		c-0.436-4.128-0.08-8.244,0.024-9.425c0.134-1.517,1.675-1.964,2.899-2.127C193.033,98.865,194.486,98.857,195.375,98.83
		L195.375,98.83z"/>
	<polygon fill-rule="evenodd" points="201.783,99 211.631,99 211.631,102.704 208.409,102.704 208.409,112.783 204.926,112.783 
		204.926,102.731 201.783,102.731 201.783,99 	"/>
</g>
</svg>
