<?xml version="1.0" encoding="utf-8"?>
<!-- Generator: Adobe Illustrator 16.0.0, SVG Export Plug-In . SVG Version: 6.00 Build 0)  -->
<svg version="1.2" baseProfile="tiny" id="Layer_1" xmlns="http://www.w3.org/2000/svg" xmlns:xlink="http://www.w3.org/1999/xlink"
	 x="0px" y="0px" width="283.465px" height="283.465px" viewBox="370.268 370.268 283.465 283.465" xml:space="preserve">
<g>
	<path d="M385.665,494.51c0-1.425-0.271-3.271-0.9-4.047c4.125,0,13.034,0.027,16.853,0.027c8.788,0,22.044,4.877,22.044,21.319
		c0,12.204-9.357,21.295-22.044,21.295c-2.783,0-13.407-0.033-17.176-0.033c0.773-1.427,1.223-3.361,1.223-4.889V494.51
		L385.665,494.51z M391.985,528.929c4.056,0.525,7.799,0.688,11.188,0.203c3.277-0.47,14.291-2.84,14.223-17.463
		c-0.065-13.858-8.623-17.025-15.217-17.413c-3.44-0.204-6.763-0.074-10.193,0.521V528.929L391.985,528.929z"/>
	<path d="M427.282,503.556l6.314-0.986c0,1.293,0,5.083,0,5.56c1.62-4.001,6.658-7.218,13.819-4.431l-1.679,4.396
		c-6.554-3.111-12.141-0.382-12.141,6.897v15.016c0,0.716,0.155,2.158,0.583,3.084h-6.559c0.663-0.816,0.969-2.368,0.969-3.084
		v-21.662C428.589,506.774,428.269,504.342,427.282,503.556L427.282,503.556z"/>
	<path d="M626.895,506.57c0,0.409,0,17.877,0,19.183c0,6.021,4.15,7.631,7.227,7.631c1.301,0.064,3.141-0.241,4.428-0.525
		l0.793-3.717c-1.501,0.572-3.243,0.708-4.289,0.708c-1.927,0-3.322-1.279-3.322-3.281c0-1.796-0.045-19.404,0-19.967h-0.021
		c0.257,0,4.256-0.014,4.659,0c1.312,0.046,2.32,0.127,3.185,0.475l0.006-3.5c0,0-7.681-0.01-7.83-0.01l0.031-8.978l-5.819,1.608
		c0.804,0.75,1.063,2.947,1.063,4.395c0,0-0.004,2.683-0.004,3.006c-0.263,0-3.216,0.015-3.704,0.015v2.958
		C623.813,506.569,626.895,506.57,626.895,506.57L626.895,506.57z"/>
	<path d="M601.744,526.855c2.502,1.786,6.428,3.372,9.306,3.372c3.995,0,6.854-1.943,6.854-5.6c0-6.751-15.393-5.633-15.393-14.198
		c0-5.792,5.18-7.969,10.113-7.969c1.586,0,5.206,0.344,7.51,1.235l-0.02,3.955c-2.045-1.748-5.165-2.171-7.221-2.171
		c-3.269,0-5.719,1.619-5.719,4.797c0,4.666,15.378,4.396,15.378,13.97c0,6.191-5.366,9.079-11.269,9.079
		c-2.879,0-5.877-0.511-8.375-1.225L601.744,526.855L601.744,526.855z"/>
	<path d="M508.846,506.63c0-0.351,0.014-3.488,0.014-3.888l-6.393,0.988c0.77,0.807,1.361,3.325,1.361,5.125v20.946
		c0,0.715-0.305,2.447-0.969,3.265h6.97c-0.663-0.817-0.969-2.551-0.969-3.265v-15.761c0-5.766,3.567-7.784,7.117-7.784
		c3.214,0,6.117,1.391,6.117,7.784v15.761c0,0.715-0.308,2.447-0.968,3.265h6.76c-0.665-0.817-0.97-2.551-0.97-3.265v-15.761
		c0-6.393,3.95-7.784,7.168-7.784c3.212,0,6.573,2.017,6.573,7.784v15.761c0,0.715-0.306,2.447-0.969,3.265h6.507
		c-0.664-0.817-0.969-2.551-0.969-3.265v-18.752c0-3.196-3.26-8.317-10.876-8.317c-4.429,0-6.987,1.971-8.93,3.666
		c-1.651-1.927-4.341-3.736-8.662-3.736C512.547,502.662,510.061,505.129,508.846,506.63L508.846,506.63z"/>
	<path d="M493.773,516.456c-0.912,0.858-2.822,1.525-4.794,1.784c-5.181,0.679-9.668,1.539-9.668,6.587
		c0,2.992,3.262,5.35,5.847,5.35c6.848,0,8.617-4.939,8.617-8.831v-4.89H493.773L493.773,516.456z M477.599,504.105
		c2.613-1.048,6.831-1.527,9.474-1.527c6.753,0,11.24,3.374,11.24,11.208v12.993c0,2.407,0.037,4.685,0.895,6.286h-5.428
		l-0.195-3.418c-2.057,2.653-4.512,3.841-8.681,3.841c-8.224,0-10.021-5.619-10.021-8.321c0-9.638,9.173-9.752,13.156-10.319
		c2.203-0.312,5.041-0.936,5.466-3.001c0.704-3.418-1.741-5.981-6.733-5.981c-3.664,0-6.666,1.114-9.172,2.615V504.105
		L477.599,504.105z M594.281,516.456c-0.911,0.858-2.821,1.525-4.795,1.784c-5.181,0.679-9.668,1.539-9.668,6.587
		c0,2.992,3.262,5.35,5.848,5.35c6.848,0,8.616-4.939,8.616-8.831L594.281,516.456L594.281,516.456z M578.107,504.105
		c2.613-1.048,6.831-1.527,9.476-1.527c6.752,0,11.24,3.374,11.24,11.208v12.993c0,2.407-0.525,4.637,0.892,6.286h-5.429
		l-0.195-3.418c-2.057,2.653-4.511,3.841-8.679,3.841c-8.223,0-10.021-5.619-10.021-8.321c0-9.638,9.174-9.752,13.156-10.319
		c2.204-0.312,5.042-0.936,5.467-3.001c0.703-3.418-1.74-5.981-6.733-5.981c-3.663,0-6.666,1.114-9.173,2.615V504.105
		L578.107,504.105z"/>
	<path d="M572.328,508.09c-2.037-1.189-5.251-2.133-7.493-2.133c-7.872,0-11.479,4.842-11.479,11.813
		c0,6.908,3.526,12.197,11.226,12.197c2.639,0,6.231-1.185,9.02-2.897l-1.135,5.081c-2.837,0.845-5.229,1.245-8.395,1.245
		c-10.819,0-15.891-7.673-15.891-15.657c0-8.825,6.803-15.031,16.008-15.031c4.024,0,6.963,0.987,8.149,1.324L572.328,508.09
		L572.328,508.09z"/>
	<path d="M451.211,518.141c0.003-0.729,0.1-1.425,0.183-2.097h20.935c0-7.199-3.598-13.372-12.125-13.372
		c-8.851,0-14.104,6.921-14.104,15.749c0,7.984,5.851,15.116,15.868,15.116c3.168,0,5.817-0.781,8.675-1.781l1.006-5.104
		c-2.445,2.013-6.398,3.204-9.964,3.204C455.271,529.856,451.181,525.214,451.211,518.141L451.211,518.141z M452.056,512.851
		c0.679-3.503,3.918-7.068,7.796-7.068c5.925,0,7.64,4.623,7.64,7.069C467.491,512.851,452.056,512.86,452.056,512.851
		L452.056,512.851z"/>
</g>
</svg>
