<?xml version="1.0" encoding="utf-8"?>
<!-- Generator: Adobe Illustrator 25.2.0, SVG Export Plug-In . SVG Version: 6.00 Build 0)  -->
<svg version="1.1" id="Layer_1" xmlns="http://www.w3.org/2000/svg" xmlns:xlink="http://www.w3.org/1999/xlink" x="0px" y="0px"
	 viewBox="0 0 1024 1024" style="enable-background:new 0 0 1024 1024;" xml:space="preserve">
<style type="text/css">
	.st0{fill:url(#SVGID_1_);}
	.st1{fill:#7A7EAE;}
	.st2{fill:#663399;}
	.st3{fill:#120F22;}
	.st4{fill:url(#SVGID_2_);}
	.st5{fill:url(#SVGID_3_);}
	.st6{fill:url(#SVGID_4_);}
	.st7{fill:#2D2868;}
	.st8{fill:#453D76;}
	.st9{fill:url(#SVGID_5_);}
	.st10{fill:url(#SVGID_6_);}
	.st11{fill:url(#SVGID_7_);}
	.st12{fill:url(#SVGID_8_);}
	.st13{fill:#484592;}
	.st14{fill:none;}
	.st15{fill:url(#SVGID_9_);}
	.st16{fill:url(#SVGID_10_);}
	.st17{fill:url(#SVGID_11_);}
</style>
<g>
	<g id="GAMECUBE">
		<path d="M162.4,912.4v20.4H78.3v52h61.3v-14.4h-35.5v-21.8h59.7c0,0,0,23.7,0,39.7c-0.2,6.7-13.5,20-20.9,20
			c-13.7,0-51.1,0-68.5,0c-9.8,0-23-13.2-23-20c0-20.2,0-40.2,0-57.3c0-11.1,7.2-18.6,16.7-18.6C84.1,912.4,162.4,912.4,162.4,912.4
			z"/>
		<polygon points="227.6,984.1 227.6,1006.7 158.2,1006.7 214.6,911.2 236.9,911.2 280.1,984.1 280.1,911.2 304.7,911.2 
			343.2,976.7 381.8,911.2 406.2,911.2 406.2,1006.7 381.8,1006.7 381.5,958.1 353.5,1006.7 332.8,1006.7 304.7,958.1 304.7,1006.7 
			263.1,1006.7 225.1,941.4 199.5,984.1 		"/>
		<polygon points="415,911.2 415,1006.7 513,1006.7 513,984.1 441.7,984.1 441.7,967.7 483,967.7 483,946.8 441.7,946.8 
			441.7,931.9 513,931.9 513,911.2 		"/>
		<path d="M610.7,948.9h24.4v-20.7c0,0,2.6-16.9-15.1-16.9c0,0-56.9,0-77.1,0c-7.7,0-11.1,3.7-11.1,9.3c0,9.8,0,46.9,0,67.6
			c0,9.5,9.1,18.6,14.9,18.6c16.9,0,75.5,0,75.5,0s13.2,1.9,13.2-13c0-14.6,0-28.1,0-28.1h-24.4v18.6h-54.6v-50.6h52.5v15.1
			L610.7,948.9z"/>
		<path d="M644.6,911.2h26.2v73.1h54.3v-73.1h26.2v78.9c0,0,1.6,16.9-22.5,16.9c-24.1,0-63.9,0-63.9,0s-20.7,1.9-20.7-16.9
			C644.6,976.9,644.6,911.2,644.6,911.2z"/>
		<g id="XMLID_1_">
			<g>
				<path d="M864.3,967.4V992c0,8.6-6.5,15.1-26.2,15.1c-17.6,0-77.1,0-77.1,0v-95.9c0,0,78,0,90.1,0c8.4,0,13,4.9,13,13.2
					c0,6.7,0,23.5,0,26.2c0,2.1-2.8,5.6-9.3,5.6c0,0.5,0,0,0,1.9C859.4,958.1,864.3,963,864.3,967.4z M839.9,982.5
					c0-2.3,0-8.1,0-11.1c0-3-0.7-3.9-1.9-3.9c-2.3,0-50.6,0-50.6,0v16.9c0,0,36.5,0,48.8,0C839,984.4,839.9,983.4,839.9,982.5z
					 M839.9,944.9c0-2.3,0-8.1,0-11.1c0-3-0.7-3.7-1.9-3.7c-2.3,0-50.6,0-50.6,0V947c0,0,36.5,0,48.8,0
					C839,946.8,839.9,945.8,839.9,944.9z"/>
			</g>
		</g>
		<polygon points="873.5,1007.1 971.5,1007.1 971.5,984.4 898.2,984.4 898.2,967.7 939.5,967.7 939.5,946.8 898.2,946.8 
			898.2,931.9 969.4,931.9 969.4,911 873.5,911 		"/>
		<polygon points="982.7,984.4 982.7,988.1 988.5,988.1 988.5,1007.1 993.8,1007.1 993.8,988.3 999.6,988.3 999.6,984.4 		"/>
		<polygon points="1001.5,1007.1 1007.1,1007.1 1007.1,995.8 1010.8,1007.1 1014.5,1007.1 1018.2,995.8 1018.2,1007.1 1024,1007.1 
			1024,984.4 1016.3,984.4 1012.6,997.4 1008.9,984.4 1001.5,984.4 		"/>
	</g>
	<g id="NINTENDO">
		<polygon points="71.8,813.5 71.8,884.8 85.1,884.8 85.1,832.3 113.1,884.8 128,884.8 128,813.5 113.1,813.5 113.1,856.4 
			90.6,813.5 		"/>
		<polygon points="297.3,813.5 297.3,884.8 310.3,884.8 310.3,832.3 338.6,884.8 353.5,884.8 353.5,813.5 338.4,813.5 338.4,856.4 
			315.8,813.5 		"/>
		<rect x="205.1" y="813.5" width="15.1" height="71.3"/>
		<polygon points="415.4,813.5 415.4,824.9 438,824.9 438,884.8 453.1,884.8 453.1,824.9 475.6,824.9 475.6,813.5 		"/>
		<path d="M545.2,839.7v1.9h41.3V853h-41.3c0,0,0,10.9,0,15.1c0,1.6,3.9,5.6,5.6,5.6c4.6,0,35.8,0,35.8,0V885c0,0-30.4,0-41.3,0
			c-7.7,0-13.2-6.7-13.2-13.2c0-1.6,0-33.9,0-45c0-8.1,4.9-13,13-13h41.3v11.4c0,0-25.1,0-33.9,0c-3.7,0-7.4,3.9-7.4,5.8"/>
		<polygon points="654.1,885 667.1,885 667.1,832.5 695.2,885 708.5,885 708.5,813.5 695.5,813.5 695.5,856.4 671.1,813.5 
			654.1,813.5 		"/>
		<g id="XMLID_5_">
			<g>
				<path d="M832.7,826.7V872c0,3.5-9.8,13-15.3,13c-11.4,0-41.1,0-41.1,0v-71.5c0,0,29.3,0,37.4,0
					C825.3,813.5,832.7,820.9,832.7,826.7z M819.2,868.1c0-4.9,0-27.2,0-37.4c0-1.4-4.4-5.8-7.4-5.8c-5.8,0-22.5,0-22.5,0v50.6
					c0,0,16,0,22.5,0C814.1,875.5,819.2,870.4,819.2,868.1z"/>
			</g>
		</g>
		<g id="XMLID_4_">
			<g>
				<path d="M954.6,830.4c0,5.1,0,27.2,0,37.4c0,10.7-8.1,18.8-20.4,18.8c0,0,0,0-0.2,0c-10.7,0-7.7,0-18.8,0h-0.2
					c-12.1,0-20-7.4-20.4-17.9c0-0.5,0-0.7,0-1.2c0-7.2,0-30.4,0-37.4c0-1.4,0-2.1,0-2.1c0-7.2,7.7-14.9,16.9-14.9
					c6.7,0,26.2,0,26.2,0C948.5,813.5,954.6,819.3,954.6,830.4z M939.5,866.2c0-1.9,0-30.6,0-33.9c0-2.8-4.9-7.7-7.4-7.7
					c-2.8,0-14.9,0-14.9,0c-3.9,0-7.7,3.7-7.7,7.2c0,2.3,0,30.6,0,34.1c0,5.3,2.1,7.4,5.8,7.4c3.3,0,12.5,0,16.9,0
					C935.8,873.6,939.5,869.7,939.5,866.2z"/>
			</g>
		</g>
	</g>
	<g id="_x33_D_PART">
		
			<linearGradient id="SVGID_1_" gradientUnits="userSpaceOnUse" x1="335.8218" y1="560.2538" x2="818.5389" y2="479.9531" gradientTransform="matrix(1 0 0 1 0 5.036)">
			<stop  offset="3.680000e-02" style="stop-color:#FFFFFF"/>
			<stop  offset="0.8957" style="stop-color:#898CBF"/>
		</linearGradient>
		<polygon class="st0" points="726.6,390.9 726.6,512.1 511.8,636.1 298.7,512.1 289.1,518.6 511.8,649.3 736.3,519.3 736.3,385.3 
					"/>
	</g>
	<g id="black_line_thing">
		<polygon class="st1" points="726.6,511.7 736.3,518.6 736.3,519.3 735.6,519.8 725.9,512.6 726.6,512.1 		"/>
	</g>
	<g id="dark_purple_top_line">
		<polygon class="st2" points="513.7,389.5 362.3,300.8 360,303.2 511.8,393.5 		"/>
		<polygon class="st2" points="513.2,389.5 514.4,389.5 514.4,390.7 512.5,390.7 		"/>
	</g>
	<g id="top_black_line">
		<polygon class="st3" points="513.7,393.5 513.7,389.5 835.9,203.3 836.9,205.9 		"/>
	</g>
	<g id="LOGO_DARK_LINES">
		
			<linearGradient id="SVGID_2_" gradientUnits="userSpaceOnUse" x1="511.1075" y1="568.1442" x2="740.2723" y2="568.1442" gradientTransform="matrix(1 0 0 1 0 5.036)">
			<stop  offset="0" style="stop-color:#140F2D"/>
			<stop  offset="1" style="stop-color:#3B3C75"/>
		</linearGradient>
		<polygon class="st4" points="513.7,762.2 515.8,651 739.3,522.1 740.3,384.2 736.3,384.2 736.3,519.3 511.8,649.3 511.1,762.2 		
			"/>
	</g>
	<g id="LOGO">
		
			<linearGradient id="SVGID_3_" gradientUnits="userSpaceOnUse" x1="574.2106" y1="412.6502" x2="842.4882" y2="588.7642" gradientTransform="matrix(1 0 0 1 0 5.036)">
			<stop  offset="0" style="stop-color:#4C5284"/>
			<stop  offset="1" style="stop-color:#8789BC"/>
		</linearGradient>
		<polygon class="st5" points="513.7,563.9 513.7,393.5 836.9,205.9 836.9,575.7 513.7,762.2 513.7,650 738.2,520.9 738.2,384.2 
			663,427.8 663,475.9 		"/>
	</g>
	<g id="BOTTOM_LAIN_LEFT_LIGHT_LINE">
		
			<linearGradient id="SVGID_4_" gradientUnits="userSpaceOnUse" x1="510.4029" y1="753.2361" x2="508.5338" y2="633.6342" gradientTransform="matrix(1 0 0 1 0 5.036)">
			<stop  offset="0.1104" style="stop-color:#4C407E"/>
			<stop  offset="0.8896" style="stop-color:#666699"/>
			<stop  offset="1" style="stop-color:#A7B3D9"/>
			<stop  offset="1" style="stop-color:#9BA5CD"/>
		</linearGradient>
		<polyline class="st6" points="509.9,762.2 511.8,762.2 511.8,649.3 505.5,645.4 509.9,762.2 		"/>
	</g>
	<g id="underneath">
		<polyline class="st7" points="288.4,260.2 289.8,261.4 290.5,517.7 289.1,518.6 288.2,518.2 288.4,260.2 		"/>
	</g>
	<g id="LEFT_3D_PURPLE_SHADOW">
		<polygon class="st8" points="298.7,512.1 289.1,518.6 289.1,260.7 513.7,130.9 513.7,143.6 298.9,268.1 		"/>
	</g>
	<g id="MAIN_DARK_PURPLE_LINE">
		<polygon class="st8" points="513.7,388.8 513.7,563.9 511.8,565.1 511.8,393.5 511.8,388.4 		"/>
	</g>
	<g id="logo_LEFT_side">
		
			<linearGradient id="SVGID_5_" gradientUnits="userSpaceOnUse" x1="218.0853" y1="489.595" x2="585.8398" y2="387.3906" gradientTransform="matrix(1 0 0 1 0 5.036)">
			<stop  offset="0.2331" style="stop-color:#666699"/>
			<stop  offset="0.7239" style="stop-color:#A7B3D9"/>
		</linearGradient>
		<polygon class="st9" points="360,303.2 360,477.3 511.8,565.1 511.8,393.5 		"/>
		
			<linearGradient id="SVGID_6_" gradientUnits="userSpaceOnUse" x1="224.4483" y1="512.465" x2="592.191" y2="410.2636" gradientTransform="matrix(1 0 0 1 0 5.036)">
			<stop  offset="0.2331" style="stop-color:#666699"/>
			<stop  offset="0.9907" style="stop-color:#A7B3D9"/>
		</linearGradient>
		<polygon class="st10" points="509.9,760.3 509.9,648.2 289.1,518.6 289.1,261.8 189.1,203.3 189.1,576.4 509.9,762.2 		"/>
	</g>
	<g id="left_purple_line">
		<rect x="287.3" y="260.7" class="st7" width="1.6" height="258"/>
		<polygon class="st7" points="289.1,260.7 190.5,201.9 189.1,203.3 288.2,261.4 		"/>
	</g>
	<g id="BOTTOM_PURPLE_LINE">
		
			<linearGradient id="SVGID_7_" gradientUnits="userSpaceOnUse" x1="306.7947" y1="529.7751" x2="453.0271" y2="608.0242" gradientTransform="matrix(1 0 0 1 0 5.036)">
			<stop  offset="0" style="stop-color:#6E70A9"/>
			<stop  offset="0.9693" style="stop-color:#514A8E"/>
		</linearGradient>
		<polygon class="st11" points="509.9,648.2 509.9,650.3 287.3,520.5 287.3,518.6 289.1,518.6 		"/>
	</g>
	<g id="top_middle_light_line">
		
			<linearGradient id="SVGID_8_" gradientUnits="userSpaceOnUse" x1="524.0068" y1="144.2593" x2="616.8522" y2="189.4277" gradientTransform="matrix(1 0 0 1 0 5.036)">
			<stop  offset="3.680000e-02" style="stop-color:#9EA5D3"/>
			<stop  offset="0.9018" style="stop-color:#7675AE"/>
		</linearGradient>
		<polygon class="st12" points="513.7,130.9 657.2,214.9 657.2,227.5 513.7,143.6 		"/>
	</g>
	<g id="top_right">
		<polygon class="st13" points="657.2,214.9 657.2,227.5 756.8,169.2 756.8,157.3 		"/>
	</g>
	<g id="MAIN_TOP">
		<path class="st14" d="M189.1,203.3"/>
		
			<linearGradient id="SVGID_9_" gradientUnits="userSpaceOnUse" x1="190.4627" y1="196.8835" x2="190.4627" y2="196.8835" gradientTransform="matrix(1 0 0 1 0 5.036)">
			<stop  offset="0.2331" style="stop-color:#666699"/>
			<stop  offset="0.9907" style="stop-color:#A7B3D9"/>
		</linearGradient>
		<path class="st15" d="M190.5,201.9"/>
		
			<linearGradient id="SVGID_10_" gradientUnits="userSpaceOnUse" x1="485.9164" y1="37.8564" x2="464.0164" y2="281.1889" gradientTransform="matrix(1 0 0 1 0 5.036)">
			<stop  offset="0" style="stop-color:#AAACD2"/>
			<stop  offset="0.6258" style="stop-color:#FCFAFB"/>
		</linearGradient>
		<polygon class="st16" points="512.5,15.7 756.8,157.3 657.2,214.9 513.7,130.9 289.1,260.7 190.5,201.9 		"/>
		
			<linearGradient id="SVGID_11_" gradientUnits="userSpaceOnUse" x1="620.4637" y1="9.7164" x2="598.563" y2="253.0566" gradientTransform="matrix(1 0 0 1 0 5.036)">
			<stop  offset="0.6743" style="stop-color:#AAACD2"/>
			<stop  offset="1" style="stop-color:#FCFAFB"/>
		</linearGradient>
		<polygon class="st17" points="362.3,300.8 511.8,216.5 654.1,296.9 827.6,197 835.9,203.3 513.7,389.5 		"/>
	</g>
</g>
</svg>
