<?xml version="1.0" encoding="utf-8"?>
<svg version="1.1" id="Layer_1" xmlns="http://www.w3.org/2000/svg" xmlns:xlink="http://www.w3.org/1999/xlink" x="0px" y="0px"
	 width="1024px" height="1024px" viewBox="0 0 1024 1024" style="enable-background:new 0 0 1024 1024;" xml:space="preserve">
<style type="text/css">
	.st0{stroke:#000000;stroke-width:7.5324;stroke-linecap:round;stroke-opacity:0;}
	.st1{fill:#FFFFFF;}
	.st2{fill:#00AA00;stroke:#000000;stroke-width:5.2212;stroke-linecap:round;stroke-opacity:0;}
	.st3{fill:#00AA00;stroke:#000000;stroke-width:5.1549;stroke-linecap:round;stroke-opacity:0;}
	.st4{fill:#D40000;stroke:#000000;stroke-width:0.782;stroke-opacity:0;}
</style>
<rect id="rect4013" y="99.2" class="st0" width="1023.9" height="604"/>
<g id="g3975">
	<g id="g3903">
	</g>
</g>
<g id="text4033">
	<path id="path3078" class="st1" d="M158.5,600.2h10l1.7,5.6h6.2l-9.6-27.1h-6.5l-9.7,27.1h6L158.5,600.2z M163.4,584.8L163.4,584.8
		l3.4,10.7H160L163.4,584.8z"/>
	<path id="path3080" class="st1" d="M198.7,578.7h-5.8v17.9c0,1.7-0.4,2.9-1.3,3.8c-0.9,0.9-2.3,1.3-4.2,1.4c-1.4,0-2.5-0.4-3.4-1.3
		c-0.9-0.9-1.4-2.3-1.4-4.1v-17.6h-5.8v18c0,1.4,0.2,2.6,0.5,3.7c0.3,1.1,0.9,2.1,1.6,2.9c1.3,1.3,2.7,2.2,4.3,2.6
		c1.6,0.5,3,0.7,4.3,0.6c3.5,0,6.2-0.8,8.1-2.4c2-1.6,3-4.2,3-7.8L198.7,578.7z"/>
	<path id="path3082" class="st1" d="M201.2,605.8h11.7c3-0.1,5.3-0.9,6.9-2.4c1.6-1.5,2.8-3.4,3.4-5.5c0.6-2.2,1-4.3,0.9-6.3
		c0-1.8-0.2-3.7-0.8-5.6c-0.6-2-1.7-3.7-3.3-5.1c-1.6-1.4-3.9-2.1-6.9-2.2h-12L201.2,605.8z M206.7,583.4h5.4c0.8,0,1.7,0.1,2.7,0.5
		c1,0.4,1.8,1.1,2.5,2.4c0.7,1.2,1,3.2,1.1,5.8c0,2.3-0.4,4.4-1.4,6.2c-0.9,1.8-2.5,2.8-4.8,2.9h-5.5L206.7,583.4z"/>
	<path id="path3084" class="st1" d="M230.6,578.7H225v27.1h5.7V578.7z"/>
	<path id="path3086" class="st1" d="M231.6,592.2c0.1,4.2,1,7.3,2.6,9.4c1.6,2.1,3.5,3.4,5.5,4c2,0.6,3.7,0.9,5,0.9
		c1.3,0.1,2.9-0.2,5-0.9c2-0.6,3.9-2,5.5-4c1.6-2.1,2.5-5.2,2.6-9.4c-0.1-4.2-1-7.3-2.6-9.4c-1.6-2.1-3.5-3.4-5.5-4
		c-2-0.6-3.7-0.9-5-0.9c-1.3-0.1-2.9,0.2-5,0.9c-2,0.6-3.9,2-5.5,4C232.6,584.9,231.7,588,231.6,592.2z M237.3,592.2
		c0.1-3.7,1-6.2,2.5-7.6c1.6-1.3,3.2-2,4.8-1.9c1.6-0.1,3.3,0.6,4.8,1.9c1.6,1.3,2.4,3.9,2.5,7.6c-0.1,3.7-1,6.2-2.5,7.6
		c-1.6,1.3-3.2,2-4.8,1.9c-1.6,0.1-3.3-0.6-4.8-1.9C238.3,598.5,237.4,595.9,237.3,592.2z"/>
	<path id="path3088" class="st1" d="M278.9,600.2h10l1.7,5.6h6.2l-9.6-27.1h-6.5l-9.7,27.1h6L278.9,600.2z M283.9,584.8L283.9,584.8
		l3.4,10.7h-6.9L283.9,584.8z"/>
	<path id="path3090" class="st1" d="M314,597.6L314,597.6l-10.8-18.9h-6v27.1h5.3v-19.3h0.1l11.1,19.3h5.7v-27.1H314V597.6z"/>
	<path id="path3092" class="st1" d="M321.7,605.8h11.7c3-0.1,5.3-0.9,6.9-2.4c1.6-1.5,2.8-3.4,3.4-5.5c0.6-2.2,1-4.3,0.9-6.3
		c0-1.8-0.2-3.7-0.8-5.6c-0.6-2-1.7-3.7-3.3-5.1c-1.6-1.4-3.9-2.1-6.9-2.2h-12L321.7,605.8z M327.2,583.4h5.4c0.8,0,1.7,0.1,2.7,0.5
		c1,0.4,1.8,1.1,2.5,2.4c0.7,1.2,1,3.2,1.1,5.8c0,2.3-0.4,4.4-1.4,6.2c-0.9,1.8-2.5,2.8-4.8,2.9h-5.5V583.4z"/>
	<path id="path3094" class="st1" d="M369.8,599.2L369.8,599.2l-5.9-20.6h-6.1l9.1,27.1h5.4l9.2-27.1h-5.9L369.8,599.2z"/>
	<path id="path3096" class="st1" d="M387.3,578.7h-5.7v27.1h5.7V578.7z"/>
	<path id="path3098" class="st1" d="M388.1,597.4c0,1.2,0.2,2.5,0.8,3.8c0.6,1.4,1.7,2.6,3.4,3.6c1.7,1,4.1,1.6,7.4,1.6
		c0.9,0,2.2-0.1,3.8-0.5c1.7-0.4,3.2-1.2,4.6-2.5c1.4-1.3,2.2-3.2,2.2-5.9c-0.1-2.4-0.8-4.1-2.2-5.1c-1.4-1-3-1.8-4.9-2.2l-6.6-1.6
		c-0.6-0.1-1.2-0.3-1.9-0.7c-0.6-0.4-1-1.1-1-2.1c0.1-1.2,0.6-2.1,1.6-2.5c1-0.5,2-0.7,3.2-0.7c2.4,0.1,3.9,0.6,4.6,1.6
		c0.7,1,1,1.8,1,2.5h5.4c0-1.2-0.3-2.4-0.9-3.7c-0.6-1.3-1.7-2.5-3.2-3.5c-1.5-1-3.7-1.5-6.4-1.5c-2.9,0-5.1,0.5-6.6,1.5
		c-1.5,0.9-2.5,2.1-3.1,3.3c-0.5,1.3-0.8,2.5-0.7,3.5c0.1,2.9,1,4.8,2.7,5.8c1.7,1,3.7,1.7,5.9,2.1l2.9,0.7c1.5,0.3,2.6,0.7,3.5,1.1
		c0.9,0.5,1.4,1.2,1.4,2.2c-0.1,1.4-0.7,2.3-1.8,2.8c-1.1,0.5-2.4,0.7-3.8,0.7c-2.4-0.1-4-0.6-4.7-1.6s-1.1-1.9-1-2.8L388.1,597.4z"
		/>
	<path id="path3100" class="st1" d="M433.4,578.7h-5.8v17.9c0,1.7-0.4,2.9-1.3,3.8c-0.9,0.9-2.3,1.3-4.2,1.4c-1.4,0-2.5-0.4-3.4-1.3
		c-0.9-0.9-1.4-2.3-1.4-4.1v-17.6h-5.8v18c0,1.4,0.2,2.6,0.5,3.7c0.3,1.1,0.9,2.1,1.6,2.9c1.3,1.3,2.7,2.2,4.3,2.6
		c1.6,0.5,3,0.7,4.3,0.6c3.5,0,6.2-0.8,8.1-2.4c2-1.6,3-4.2,3-7.8L433.4,578.7z"/>
	<path id="path3102" class="st1" d="M441.7,600.2h10l1.7,5.6h6.2l-9.6-27.1h-6.5l-9.7,27.1h6L441.7,600.2z M446.7,584.8L446.7,584.8
		l3.4,10.7h-6.9L446.7,584.8z"/>
	<path id="path3104" class="st1" d="M465.8,578.7h-5.7v27.1h19.2v-4.9h-13.5V578.7z"/>
	<path id="path3106" class="st1" d="M499.4,578.7h-5.7v27.1h5.7V578.7z"/>
	<path id="path3108" class="st1" d="M518.2,597.6L518.2,597.6l-10.8-18.9h-6v27.1h5.3v-19.3h0.1l11.1,19.3h5.7v-27.1h-5.3
		L518.2,597.6z"/>
	<path id="path3110" class="st1" d="M537.4,583.5h8.2v-4.8h-22.1v4.8h8.2v22.3h5.7V583.5z"/>
	<path id="path3112" class="st1" d="M565.9,578.7h-19.9v27.1h20.6V601h-15v-7h13.2v-4.8h-13.2v-5.7h14.4V578.7z"/>
	<path id="path3114" class="st1" d="M573.8,578.7h-5.7v27.1h19.2v-4.9h-13.5V578.7z"/>
	<path id="path3116" class="st1" d="M593.8,578.7h-5.7v27.1h19.2v-4.9h-13.5V578.7z"/>
	<path id="path3118" class="st1" d="M613.4,578.7h-5.7v27.1h5.7V578.7z"/>
	<path id="path3120" class="st1" d="M628.3,595.7h6.3c-0.7,2.6-1.8,4.3-3.3,5c-1.5,0.7-2.6,1-3.3,0.9c-2,0.1-3.8-0.6-5.4-1.9
		c-1.6-1.3-2.4-3.8-2.5-7.4c0.1-3.4,0.9-5.9,2.4-7.5c1.5-1.5,3.3-2.3,5.4-2.3c2,0.1,3.5,0.7,4.5,1.8c1,1.1,1.5,2,1.5,2.6h5.7
		c-0.1-1.3-0.5-2.6-1.4-4c-0.8-1.4-2.1-2.6-3.8-3.6s-4-1.5-6.7-1.5h-0.1c-3,0-5.5,0.7-7.5,2.1c-1.9,1.3-3.4,3.1-4.3,5.3
		s-1.4,4.5-1.4,7c0.1,4.8,1.4,8.3,3.8,10.7c2.4,2.4,5.3,3.5,8.7,3.5c2.4-0.1,4.3-0.5,5.5-1.4c1.3-0.9,2.2-1.8,2.9-2.7l0.6,3.4h3.8
		v-14.6h-11.3L628.3,595.7z"/>
	<path id="path3122" class="st1" d="M661.8,578.7h-19.9v27.1h20.6V601h-15v-7h13.2v-4.8h-13.2v-5.7h14.4V578.7z"/>
	<path id="path3124" class="st1" d="M680.6,597.6L680.6,597.6l-10.8-18.9h-6v27.1h5.3v-19.3h0.1l11.1,19.3h5.7v-27.1h-5.3
		L680.6,597.6z"/>
	<path id="path3126" class="st1" d="M699.8,583.5h8.2v-4.8h-22.1v4.8h8.2v22.3h5.7V583.5z"/>
	<path id="path3128" class="st1" d="M733.9,583.5h8.2v-4.8H720v4.8h8.2v22.3h5.7V583.5z"/>
	<path id="path3130" class="st1" d="M762.3,578.7h-19.9v27.1H763V601h-15v-7h13.2v-4.8h-13.2v-5.7h14.4V578.7z"/>
	<path id="path3132" class="st1" d="M764.5,605.8h5.6v-10.6h5.9c2,0,3.3,0.4,3.8,1.2c0.5,0.8,0.7,2.1,0.6,4c0,1.4,0.1,2.5,0.2,3.3
		c0.1,0.8,0.3,1.6,0.4,2.2h6.3v-0.7c-0.6-0.2-0.9-0.6-1.1-1.4c-0.1-0.7-0.2-2.1-0.2-4c0-2.4-0.3-4.1-0.9-5c-0.6-0.9-1.4-1.5-2.6-1.9
		c1.3-0.5,2.4-1.3,3.1-2.5c0.7-1.2,1.1-2.5,1.1-4c0-0.8-0.2-1.8-0.6-3c-0.4-1.2-1.3-2.2-2.5-3.2c-1.2-0.9-3-1.4-5.4-1.5h-13.7
		L764.5,605.8z M770.1,590.6v-7.3h7.1c1.6,0.1,2.7,0.5,3.2,1.2c0.5,0.8,0.8,1.5,0.7,2.3c0,1.3-0.4,2.3-1.1,2.9
		c-0.7,0.6-1.8,0.9-3.3,0.8L770.1,590.6z"/>
	<path id="path3134" class="st1" d="M814.8,578.7h-8.2l-4.8,21.4h-0.1l-4.9-21.4h-8.3v27.1h5.3v-22.7h0.1l4.9,22.7h5.6l5.1-22.7h0.1
		v22.7h5.3V578.7z"/>
	<path id="path3136" class="st1" d="M822.4,578.7h-5.7v27.1h5.7V578.7z"/>
	<path id="path3138" class="st1" d="M841.1,597.6L841.1,597.6l-10.8-18.9h-6v27.1h5.3v-19.3h0.1l11.1,19.3h5.7v-27.1h-5.3V597.6z"/>
	<path id="path3140" class="st1" d="M854.5,600.2h10l1.7,5.6h6.2l-9.6-27.1h-6.5l-9.7,27.1h6L854.5,600.2z M859.5,584.8L859.5,584.8
		l3.4,10.7H856L859.5,584.8z"/>
	<path id="path3142" class="st1" d="M878.7,578.7H873v27.1h19.2v-4.9h-13.5V578.7z"/>
	<path id="path3144" class="st1" d="M250.1,640.9V653h5.7v-27.1h-5.7v10.3h-10.6v-10.3h-5.7V653h5.7v-12.2H250.1z"/>
	<path id="path3146" class="st1" d="M263.5,625.9h-5.7V653h5.7V625.9z"/>
	<path id="path3148" class="st1" d="M278.5,643h6.3c-0.7,2.6-1.8,4.3-3.3,5c-1.5,0.7-2.6,1-3.3,0.9c-2,0.1-3.8-0.6-5.4-1.9
		c-1.6-1.3-2.4-3.8-2.5-7.4c0.1-3.4,0.9-5.9,2.4-7.5c1.5-1.5,3.3-2.3,5.4-2.3c2,0.1,3.5,0.7,4.5,1.8c1,1.1,1.5,2,1.5,2.6h5.7
		c-0.1-1.3-0.5-2.6-1.4-4c-0.8-1.4-2.1-2.6-3.8-3.6c-1.7-1-4-1.5-6.7-1.5h-0.1c-3,0-5.5,0.7-7.5,2.1c-1.9,1.3-3.4,3.1-4.3,5.3
		c-0.9,2.2-1.4,4.5-1.4,7c0.1,4.8,1.4,8.3,3.8,10.7c2.4,2.4,5.3,3.5,8.7,3.5c2.4-0.1,4.3-0.5,5.5-1.4s2.2-1.8,2.9-2.7l0.6,3.4h3.8
		v-14.6h-11.3L278.5,643z"/>
	<path id="path3150" class="st1" d="M308.1,640.9V653h5.7v-27.1h-5.7v10.3h-10.6v-10.3h-5.7V653h5.7v-12.2H308.1z"/>
	<path id="path3152" class="st1" d="M343,643h6.3c-0.7,2.6-1.8,4.3-3.3,5c-1.5,0.7-2.6,1-3.3,0.9c-2,0.1-3.8-0.6-5.4-1.9
		c-1.6-1.3-2.4-3.8-2.5-7.4c0.1-3.4,0.9-5.9,2.4-7.5c1.5-1.5,3.3-2.3,5.4-2.3c2,0.1,3.5,0.7,4.5,1.8c1,1.1,1.5,2,1.5,2.6h5.7
		c-0.1-1.3-0.5-2.6-1.4-4c-0.8-1.4-2.1-2.6-3.8-3.6c-1.7-1-4-1.5-6.7-1.5h-0.1c-3,0-5.5,0.7-7.5,2.1c-1.9,1.3-3.4,3.1-4.3,5.3
		c-0.9,2.2-1.4,4.5-1.4,7c0.1,4.8,1.4,8.3,3.8,10.7c2.4,2.4,5.3,3.5,8.7,3.5c2.4-0.1,4.3-0.5,5.5-1.4c1.3-0.9,2.2-1.8,2.9-2.7
		l0.6,3.4h3.8v-14.6H343L343,643z"/>
	<path id="path3154" class="st1" d="M356.6,653h5.6v-10.6h5.9c2,0,3.3,0.4,3.8,1.2c0.5,0.8,0.7,2.1,0.6,4c0,1.4,0.1,2.5,0.2,3.3
		c0.1,0.8,0.3,1.6,0.4,2.2h6.3v-0.7c-0.6-0.2-0.9-0.6-1.1-1.4c-0.1-0.7-0.2-2.1-0.2-4c0-2.4-0.3-4.1-0.9-5c-0.6-0.9-1.4-1.5-2.6-1.9
		c1.3-0.5,2.4-1.3,3.1-2.5c0.7-1.2,1.1-2.5,1.1-4c0-0.8-0.2-1.8-0.6-3c-0.4-1.2-1.3-2.2-2.5-3.2c-1.2-0.9-3-1.4-5.4-1.5h-13.7
		L356.6,653z M362.2,637.8v-7.3h7.1c1.6,0.1,2.7,0.5,3.2,1.2c0.5,0.8,0.8,1.5,0.7,2.3c0,1.3-0.4,2.3-1.1,2.9
		c-0.7,0.6-1.8,0.9-3.3,0.8L362.2,637.8z"/>
	<path id="path3156" class="st1" d="M386.6,647.4h10l1.7,5.6h6.2l-9.6-27.1h-6.5l-9.7,27.1h6L386.6,647.4z M391.6,632L391.6,632
		l3.4,10.7h-6.9L391.6,632z"/>
	<path id="path3158" class="st1" d="M405.1,653h11.7c3-0.1,5.3-0.9,6.9-2.4c1.6-1.5,2.8-3.4,3.4-5.5c0.6-2.2,1-4.3,0.9-6.3
		c0-1.8-0.2-3.7-0.8-5.6c-0.6-2-1.7-3.7-3.3-5.1c-1.6-1.4-3.9-2.1-6.9-2.2h-12V653z M410.6,630.6h5.4c0.8,0,1.7,0.1,2.7,0.5
		c1,0.4,1.8,1.1,2.5,2.4c0.7,1.2,1,3.2,1.1,5.8c0,2.3-0.4,4.4-1.4,6.2c-0.9,1.8-2.5,2.8-4.8,2.9h-5.5L410.6,630.6z"/>
	<path id="path3160" class="st1" d="M449.3,625.9h-19.9V653h20.6v-4.8h-15v-7h13.2v-4.8h-13.2v-5.7h14.4V625.9z"/>
	<path id="path3162" class="st1" d="M491.6,625.9h-8.2l-4.8,21.4h-0.1l-4.9-21.4h-8.3V653h5.3v-22.7h0.1l4.9,22.7h5.6l5.1-22.7h0.1
		V653h5.3L491.6,625.9z"/>
	<path id="path3164" class="st1" d="M515.6,625.9h-5.8v17.9c0,1.7-0.4,2.9-1.3,3.8c-0.9,0.9-2.3,1.3-4.2,1.4c-1.4,0-2.5-0.4-3.4-1.3
		c-0.9-0.9-1.4-2.3-1.4-4.1v-17.6h-5.8v18c0,1.4,0.2,2.6,0.5,3.7c0.3,1.1,0.9,2.1,1.6,2.9c1.3,1.3,2.7,2.2,4.3,2.6s3,0.7,4.3,0.6
		c3.5,0,6.2-0.8,8.1-2.4s3-4.2,3-7.8V625.9z"/>
	<path id="path3166" class="st1" d="M523.8,625.9h-5.7V653h19.2v-4.9h-13.5V625.9z"/>
	<path id="path3168" class="st1" d="M549.7,630.7h8.2v-4.8h-22.1v4.8h8.2V653h5.7L549.7,630.7z"/>
	<path id="path3170" class="st1" d="M563.4,625.9h-5.7V653h5.7V625.9z"/>
	<path id="path3172" class="st1" d="M571.3,643.2h6.5c2.4-0.1,4.2-0.6,5.5-1.7c1.3-1.1,2.1-2.3,2.5-3.6c0.4-1.3,0.7-2.5,0.6-3.3
		c0-2.7-0.8-4.8-2.2-6.3c-1.5-1.5-3.5-2.3-6.2-2.3h-12.4V653h5.7V643.2z M571.3,638.5v-8h4.5c1.7,0,3,0.3,3.8,0.9
		c0.8,0.6,1.2,1.5,1.2,2.9c0.1,0.7-0.1,1.6-0.5,2.6c-0.4,1-1.7,1.6-3.7,1.7H571.3z"/>
	<path id="path3174" class="st1" d="M609.5,625.9h-5.8v17.9c0,1.7-0.4,2.9-1.3,3.8c-0.9,0.9-2.3,1.3-4.2,1.4c-1.4,0-2.5-0.4-3.4-1.3
		c-0.9-0.9-1.4-2.3-1.4-4.1v-17.6h-5.8v18c0,1.4,0.2,2.6,0.5,3.7c0.3,1.1,0.9,2.1,1.6,2.9c1.3,1.3,2.7,2.2,4.3,2.6
		c1.6,0.5,3,0.7,4.3,0.6c3.5,0,6.2-0.8,8.1-2.4s3-4.2,3-7.8L609.5,625.9z"/>
	<path id="path3176" class="st1" d="M612,653h5.6v-10.6h5.9c2,0,3.3,0.4,3.8,1.2c0.5,0.8,0.7,2.1,0.6,4c0,1.4,0.1,2.5,0.2,3.3
		c0.1,0.8,0.3,1.6,0.4,2.2h6.3v-0.7c-0.6-0.2-0.9-0.6-1.1-1.4c-0.1-0.7-0.2-2.1-0.2-4c0-2.4-0.3-4.1-0.9-5c-0.6-0.9-1.4-1.5-2.6-1.9
		c1.3-0.5,2.4-1.3,3.1-2.5c0.7-1.2,1.1-2.5,1.1-4c0-0.8-0.2-1.8-0.6-3c-0.4-1.2-1.3-2.2-2.5-3.2c-1.2-0.9-3-1.4-5.4-1.5H612L612,653
		z M617.6,637.8v-7.3h7.1c1.6,0.1,2.7,0.5,3.2,1.2s0.8,1.5,0.7,2.3c0,1.3-0.4,2.3-1.1,2.9c-0.7,0.6-1.8,0.9-3.3,0.8L617.6,637.8z"/>
	<path id="path3178" class="st1" d="M641.9,643.2h6.5c2.4-0.1,4.2-0.6,5.5-1.7c1.3-1.1,2.1-2.3,2.5-3.6c0.4-1.3,0.7-2.5,0.6-3.3
		c0-2.7-0.8-4.8-2.2-6.3c-1.5-1.5-3.5-2.3-6.2-2.3h-12.4V653h5.7V643.2z M641.9,638.5v-8h4.5c1.7,0,3,0.3,3.8,0.9
		c0.8,0.6,1.2,1.5,1.2,2.9c0.1,0.7-0.1,1.6-0.5,2.6c-0.4,1-1.7,1.6-3.7,1.7H641.9z"/>
	<path id="path3180" class="st1" d="M657.2,639.5c0.1,4.2,1,7.3,2.6,9.4c1.6,2.1,3.5,3.4,5.5,4s3.7,0.9,5,0.9c1.3,0.1,2.9-0.2,5-0.9
		c2-0.6,3.9-2,5.5-4c1.6-2.1,2.5-5.2,2.6-9.4c-0.1-4.2-1-7.3-2.6-9.4c-1.6-2.1-3.5-3.4-5.5-4c-2-0.6-3.7-0.9-5-0.9
		c-1.3-0.1-2.9,0.2-5,0.9c-2,0.6-3.9,2-5.5,4C658.2,632.1,657.3,635.3,657.2,639.5z M662.9,639.5c0.1-3.7,1-6.2,2.5-7.6
		c1.6-1.3,3.2-2,4.8-1.9c1.6-0.1,3.3,0.6,4.8,1.9c1.6,1.3,2.4,3.9,2.5,7.6c-0.1,3.7-1,6.2-2.5,7.6c-1.6,1.3-3.2,2-4.8,1.9
		c-1.6,0.1-3.3-0.6-4.8-1.9C663.8,645.7,663,643.2,662.9,639.5z"/>
	<path id="path3182" class="st1" d="M683.3,644.7c0,1.2,0.2,2.5,0.8,3.8s1.7,2.6,3.4,3.6s4.1,1.6,7.4,1.6c0.9,0,2.2-0.1,3.8-0.5
		c1.7-0.4,3.2-1.2,4.6-2.5s2.2-3.2,2.2-5.9c-0.1-2.4-0.8-4.1-2.2-5.1c-1.4-1-3-1.8-4.9-2.2l-6.6-1.6c-0.6-0.1-1.2-0.3-1.9-0.7
		c-0.6-0.4-1-1.1-1-2.1c0.1-1.2,0.6-2.1,1.6-2.5c1-0.5,2-0.7,3.2-0.7c2.4,0.1,3.9,0.6,4.6,1.6c0.7,1,1,1.8,1,2.5h5.4
		c0-1.2-0.3-2.4-0.9-3.7c-0.6-1.3-1.7-2.5-3.2-3.5c-1.5-1-3.7-1.5-6.4-1.5c-2.9,0-5.1,0.5-6.6,1.5c-1.5,0.9-2.5,2.1-3.1,3.3
		c-0.5,1.3-0.8,2.5-0.7,3.5c0.1,2.9,1,4.8,2.7,5.8c1.7,1,3.7,1.7,5.9,2.1l2.9,0.7c1.5,0.3,2.6,0.7,3.5,1.1c0.9,0.5,1.4,1.2,1.4,2.2
		c-0.1,1.4-0.7,2.3-1.8,2.8c-1.1,0.5-2.4,0.7-3.8,0.7c-2.4-0.1-4-0.6-4.7-1.6c-0.7-1-1.1-1.9-1-2.8L683.3,644.7z"/>
	<path id="path3184" class="st1" d="M726.8,625.9h-19.9V653h20.6v-4.8h-15v-7h13.2v-4.8h-13.2v-5.7h14.4V625.9z"/>
	<path id="path3186" class="st1" d="M764.8,625.9h-5.8v17.9c0,1.7-0.4,2.9-1.3,3.8c-0.9,0.9-2.3,1.3-4.2,1.4c-1.4,0-2.5-0.4-3.4-1.3
		c-0.9-0.9-1.4-2.3-1.4-4.1v-17.6H743v18c0,1.4,0.2,2.6,0.5,3.7c0.3,1.1,0.9,2.1,1.6,2.9c1.3,1.3,2.7,2.2,4.3,2.6s3,0.7,4.3,0.6
		c3.5,0,6.2-0.8,8.1-2.4c2-1.6,3-4.2,3-7.8L764.8,625.9z"/>
	<path id="path3188" class="st1" d="M766,644.7c0,1.2,0.2,2.5,0.8,3.8s1.7,2.6,3.4,3.6s4.1,1.6,7.4,1.6c0.9,0,2.2-0.1,3.8-0.5
		c1.7-0.4,3.2-1.2,4.6-2.5c1.4-1.3,2.2-3.2,2.2-5.9c-0.1-2.4-0.8-4.1-2.2-5.1c-1.4-1-3-1.8-4.9-2.2l-6.6-1.6
		c-0.6-0.1-1.2-0.3-1.9-0.7c-0.6-0.4-1-1.1-1-2.1c0.1-1.2,0.6-2.1,1.6-2.5c1-0.5,2-0.7,3.2-0.7c2.4,0.1,3.9,0.6,4.6,1.6
		c0.7,1,1,1.8,1,2.5h5.4c0-1.2-0.3-2.4-0.9-3.7c-0.6-1.3-1.7-2.5-3.2-3.5s-3.7-1.5-6.4-1.5c-2.9,0-5.1,0.5-6.6,1.5
		c-1.5,0.9-2.5,2.1-3.1,3.3c-0.5,1.3-0.8,2.5-0.7,3.5c0.1,2.9,1,4.8,2.7,5.8c1.7,1,3.7,1.7,5.9,2.1l2.9,0.7c1.5,0.3,2.6,0.7,3.5,1.1
		c0.9,0.5,1.4,1.2,1.4,2.2c-0.1,1.4-0.7,2.3-1.8,2.8c-1.1,0.5-2.4,0.7-3.8,0.7c-2.4-0.1-4-0.6-4.7-1.6c-0.7-1-1.1-1.9-1-2.8
		L766,644.7z"/>
	<path id="path3190" class="st1" d="M809.5,625.9h-19.9V653h20.6v-4.8h-15v-7h13.2v-4.8h-13.2v-5.7h14.4V625.9z"/>
</g>
<g id="text4039">
	<path id="path3065" d="M11.5,827.8l11.7-17.6H87l15-24l-15-18.9c-2-2.7-5-4-8.8-4H52.5l11.7-17.6h35.2c3.9,0,7.2,1.7,9.9,5.1
		l8.3,10.5l11.2-18.2c3.9-6.1,9.8-9.2,17.6-9.2h23.5l-32.6,52.4l32.6,41.5h-35.2l-12.9-16.5l-6.9,11c-2.4,3.7-5.6,5.5-9.5,5.5H11.5z
		"/>
	<path id="path3067" d="M193.4,769.1v-17.6h35.9l4.8-8.1c4.2-6.4,10.1-9.5,18-9.5h23.5l-11,17.6h28.6c3.9,0,7.3,2.1,10.3,6.2
		l22.4,31.2c1.7,2.4,2,5,0.7,7.7l-17.2,24.9c-2.9,4.2-6.4,6.2-10.3,6.2h-46.9v-17.6h23.5c3.9,0,7.1-1.5,9.5-4.4l6.2-10.6
		c1.2-1.7,1.2-3.4,0-5.1l-11.7-16.9c-2.1-2.7-5.4-4-9.9-4h-16.1l-36.7,58.7h-35.2l36.7-58.7L193.4,769.1z M293.1,733.9h23.5
		l24.6,34.5l-9.9,18.3L293.1,733.9z M323.6,733.9h40l-18.7,29.3L323.6,733.9z"/>
	<path id="path3069" d="M422.2,827.8v-93.9h35.2v23.5h58.7c3.9,0,7.2,2.1,9.9,6.2l19.4,29h-35.2l-7.3-11.7
		c-2.9-3.9-6.4-5.9-10.3-5.9h-35.2v52.8H422.2z M492.7,751.5l-11.7-17.6h23.5l11.7,17.6H492.7z M522,751.5l-11.7-17.6h23.5
		l11.7,17.6H522z"/>
	<path id="path3071" d="M557.2,751.5v-17.6h123.2v17.6H557.2z M557.2,775v-17.6h123.2V775c0,3.9-0.9,7.7-2.6,11.4l-18,35.9
		c-2,3.7-4.9,5.5-8.8,5.5h-76.3v-17.6h46.9c3.9,0,7-2,9.2-5.9l14.3-29.3L557.2,775z"/>
	<path id="path3073" d="M692.2,769.1v-17.6h84.7c4.2,0,7.3-2,9.5-5.9l5.5-11.7h35.2l-11.7,23.5c-3.9,7.8-9.8,11.7-17.6,11.7h-23.5
		v58.7h-35.2v-58.7H692.2z"/>
	<path id="path3075" d="M953.3,808.7l-11,13.2c-2.4,3.9-5.6,5.9-9.5,5.9h-93.9v-17.6h64.5c3.1,0,5.9-2,8.4-5.9l3.3-5.6v-47.2h-76.3
		v-17.6h117.4v64.5C956.2,802.4,955.3,805.8,953.3,808.7L953.3,808.7z M968,769.1l17.6-35.2h23.5l-17.6,35.2H968z M962.1,769.1
		v-35.2h17.6L962.1,769.1z"/>
</g>
<g id="flowRoot3018">
</g>
<rect id="rect3834" x="575" y="154.9" class="st2" width="123.9" height="377.1"/>
<path id="path3838" class="st3" d="M725.6,155.1c-1.3,0-2.8-0.1-4.5-0.1l-0.8,129.2c0.1,0,0.2,0,0.3,0v-0.4c2.1-0.3,4.2-0.4,6.4-0.5
	l26-126.6C742.9,155.5,733.4,155.4,725.6,155.1L725.6,155.1z M773.3,158.7l-36.5,125.2c3.3,0.4,6.4,1.2,9.5,2.1l60-119.1
	C795.7,163.3,784.7,160.5,773.3,158.7L773.3,158.7z M826.3,175.4l-71.7,113.9c2.4,1.2,4.7,2.5,6.9,4l92.2-101.4
	C845.1,185.6,835.9,180.1,826.3,175.4z M870.9,206l-103.1,92c2.5,2.1,4.8,4.5,6.9,7L896,234.4C888.6,224.1,880.2,214.6,870.9,206
	L870.9,206z M905.4,248.9l-126.3,62.2c1.4,2.3,2.7,4.6,3.9,7.1l138.6-33.3C917.5,272.2,912,260.2,905.4,248.9z M926.8,304
	l-141.3,20.7c1.4,4.4,2.4,9,2.8,13.7H931C930.6,326.6,929.2,315.1,926.8,304L926.8,304z M788.4,349.6c-2.9,30.7-28.6,54.6-59.9,54.6
	c-2.7,0-5.3-0.2-7.9-0.5v-2.6c-0.1,0-0.2,0-0.3,0v130.5c10.7-0.1,16.2-0.5,24.5-0.5c100.9,0,183-80.7,186.1-181.4H788.4z"/>
<polygon class="st4" points="303.3,466.6 303.3,147.3 46.8,528.8 261.4,528.8 303.3,528.8 517.9,528.8 517.9,147.3 "/>
<path id="text8337" d="M1.6,938.8l51.9-86.1c2.5-4.9,4.9-7.4,7.4-7.4h37v11.4l2.5-4.1c2.5-4.9,4.9-7.4,7.4-7.4h44.4v93.5h-29.6
	v-73.8l-44.4,73.8H48.5L93,864.9H78.1c-1.6,0-3.3,0.8-4.9,2.5l-42,71.4H1.6z M191.7,901.8v17.2h69.1v19.7h-98.8v-61.5
	c0-1.6,0.4-3.3,1.2-4.9l13.6-24.6c0.8-1.6,2.5-2.5,4.9-2.5h79v19.7h-59.3c-1.6,0-2.9,0.8-3.7,2.5l-6.2,14.8h69.1l-9.9,19.7H191.7z
	 M300.4,919.1h49.4v-17.2H330l9.9-19.7h39.5v51.7c0,3.3-1.6,4.9-4.9,4.9h-98.8c-3.3,0-4.9-1.6-4.9-4.9v-56.6c0-1.6,0.4-3.3,1.2-4.9
	l13.6-24.6c0.8-1.6,2.5-2.5,4.9-2.5h84v19.7h-64.2c-1.6,0-2.9,0.8-3.7,2.5l-6.2,14.8V919.1z M512.7,938.8h-34.6l-13.6-19.7h-35.8
	l-9.9-17.8v37.5h-29.6v-93.5h56.8c2.5,0,4.9,2.5,7.4,7.4L512.7,938.8z M450.9,899.4l-22.1-32c-1.6-1.6-3.3-2.5-4.9-2.5h-4.9v34.5
	H450.9z"/>
<path id="text8339" d="M558.8,919.3h34.4c1.6,0,2.9-0.7,3.7-2.2l10.5-22.5l0.6-2.5l-0.6-2.5l-10.5-22.2c-0.8-1.6-2-2.5-3.7-2.5
	h-34.4V919.3z M529.3,845.2h82.4c2.5,0,4.5,1.6,6.1,4.9l19.1,39.5l0.6,2.5l-0.6,2.5l-19.1,39.5c-1.6,3.3-3.7,4.9-6.1,4.9h-82.4
	V845.2z M647.3,845.2H726c2.5,0,4.5,1.6,6.1,4.9l12.9,27.1l0.6,2.5l-0.6,2.5L726,904.5l19.7,34.5h-29.5l-28.3-46.9h14.8
	c1.6,0,2.9-0.4,3.7-1.2l9.8-11.1l-4.9-12.3c-0.8-1.6-2-2.5-3.7-2.5h-30.7v74h-29.5V845.2z M785.1,939h-29.5v-93.8h29.5V939z
	 M824.4,876.1l29.5,43.2l29.5-43.2v-30.8H913v34.5c0,3.3-0.4,5.8-1.2,7.4L878.5,939h-49.2l-33.2-51.8c-0.8-1.6-1.2-4.1-1.2-7.4
	v-34.5h29.5V876.1z M952.3,902v17.3h68.9V939h-98.4v-61.7c0-1.6,0.4-3.3,1.2-4.9l13.5-24.7c0.8-1.6,2.5-2.5,4.9-2.5h78.7V865h-59
	c-1.6,0-2.9,0.8-3.7,2.5l-6.1,14.8h68.9l-9.8,19.7H952.3z"/>
<g>
</g>
<g>
</g>
<g>
</g>
<g>
</g>
<g>
</g>
<g>
</g>
<g>
</g>
<g>
</g>
<g>
</g>
<g>
</g>
<g>
</g>
<g>
</g>
<g>
</g>
<g>
</g>
<g>
</g>
</svg>
