<?xml version="1.0" encoding="utf-8"?>
<!-- Generator: Adobe Illustrator 16.0.0, SVG Export Plug-In . SVG Version: 6.00 Build 0)  -->
<svg version="1.2" baseProfile="tiny" id="Layer_1" xmlns="http://www.w3.org/2000/svg" xmlns:xlink="http://www.w3.org/1999/xlink"
	 x="0px" y="0px" width="283.465px" height="283.465px" viewBox="370.268 370.268 283.465 283.465" xml:space="preserve">
<g>
	
		<rect id="rect3834" x="528.562" y="476.463" fill="#00AA00" stroke="#000000" stroke-width="5.2212" stroke-linecap="round" stroke-opacity="0" width="23.833" height="72.536"/>
	<path id="path3838" fill="#00AA00" stroke="#000000" stroke-width="5.1549" stroke-linecap="round" stroke-opacity="0" d="
		M557.53,476.501c-0.25,0-0.538-0.02-0.865-0.02l-0.153,24.852c0.019,0,0.038,0,0.058,0v-0.077c0.403-0.058,0.807-0.078,1.23-0.096
		l5.001-24.353C560.858,476.578,559.031,476.559,557.53,476.501L557.53,476.501z M566.705,477.193l-7.021,24.083
		c0.636,0.077,1.23,0.231,1.828,0.404l11.541-22.91C571.014,478.078,568.898,477.54,566.705,477.193L566.705,477.193z
		 M576.901,480.406l-13.792,21.91c0.461,0.23,0.903,0.48,1.327,0.77l17.734-19.505C580.516,482.368,578.746,481.31,576.901,480.406z
		 M585.479,486.292l-19.831,17.696c0.48,0.404,0.923,0.866,1.327,1.347l23.332-13.58
		C588.884,489.773,587.268,487.946,585.479,486.292L585.479,486.292z M592.115,494.544l-24.295,11.965
		c0.27,0.442,0.52,0.885,0.75,1.365l26.661-6.405C594.443,499.025,593.385,496.718,592.115,494.544z M596.232,505.143l-27.181,3.982
		c0.27,0.846,0.463,1.731,0.539,2.635h27.45C596.962,509.49,596.694,507.277,596.232,505.143L596.232,505.143z M569.61,513.914
		c-0.559,5.905-5.501,10.503-11.521,10.503c-0.52,0-1.02-0.039-1.52-0.097v-0.5c-0.02,0-0.039,0-0.058,0v25.102
		c2.058-0.02,3.116-0.097,4.712-0.097c19.408,0,35.201-15.521,35.798-34.892H569.61V513.914z"/>
	<polygon fill="#D40000" stroke="#000000" stroke-width="0.782" stroke-opacity="0" points="476.3,536.419 476.3,475 
		426.961,548.384 468.24,548.384 476.3,548.384 517.578,548.384 517.578,475 	"/>
</g>
</svg>
