<?xml version="1.0" encoding="utf-8"?>
<!-- Generator: Adobe Illustrator 16.0.0, SVG Export Plug-In . SVG Version: 6.00 Build 0)  -->
<svg version="1.2" baseProfile="tiny" id="Layer_1" xmlns="http://www.w3.org/2000/svg" xmlns:xlink="http://www.w3.org/1999/xlink"
	 x="0px" y="0px" width="283.465px" height="283.465px" viewBox="370.268 370.268 283.465 283.465" xml:space="preserve">
<g>
	<g>
		<path d="M547.75,484.767h-33.464c-10.322,0-15.38,6.377-15.38,14.659v25.157c0,5.14-2.427,8.829-7.549,8.829h-29.271
			c-0.205,0-0.375,0.17-0.375,0.364v5.077c0,0.207,0.17,0.381,0.375,0.381h33.131c10.318,0,15.388-6.35,15.388-14.635v-25.174
			c0-5.143,2.409-8.84,7.56-8.84h29.585c0.232,0,0.415-0.166,0.415-0.373v-5.069C548.165,484.945,547.983,484.767,547.75,484.767z"
			/>
		<path d="M449.243,484.767h-64.397c-0.234,0-0.405,0.178-0.405,0.377v5.068c0,0.207,0.17,0.381,0.405,0.381h60.524
			c5.116,0,7.544,3.689,7.544,8.832c0,5.123-2.429,8.803-7.544,8.803h-47.881c-7.435,0-13.047,6.246-13.047,14.53v16.081
			c0,0.22,0.169,0.394,0.404,0.394h10.911c0.213,0,0.392-0.174,0.392-0.394v-16.081c0-5.109,2.936-8.715,7.197-8.715h45.898
			c10.301,0,15.351-6.33,15.351-14.615C464.594,491.157,459.544,484.767,449.243,484.767z"/>
		<path d="M634.764,511.32c-0.145-0.162-0.145-0.439,0-0.598c3.208-2.657,4.795-6.66,4.795-11.294
			c0-8.271-5.039-14.663-15.371-14.663h-64.381c-0.22,0-0.381,0.179-0.381,0.394v5.052c0,0.207,0.161,0.381,0.381,0.381h60.514
			c5.102,0,7.563,3.689,7.563,8.832c0,5.123-2.445,8.803-7.563,8.803h-0.075l-60.438,0.013c-0.221,0-0.381,0.158-0.381,0.39v5.048
			c0,0.202,0.16,0.364,0.381,0.364h60.513c6.673,0.078,7.551,6.576,7.551,9.9l0.014,0.626c0,5.151-2.463,8.856-7.564,8.856h-60.513
			c-0.22,0-0.381,0.157-0.381,0.364v5.061c0,0.207,0.161,0.381,0.381,0.381h64.381c10.34,0,15.371-6.863,15.371-14.663v-0.626
			C639.559,518.971,637.972,514.222,634.764,511.32z"/>
	</g>
</g>
</svg>
