<?xml version="1.0" encoding="utf-8"?>
<!-- Generator: Adobe Illustrator 16.0.0, SVG Export Plug-In . SVG Version: 6.00 Build 0)  -->
<svg version="1.2" baseProfile="tiny" id="Layer_1" xmlns="http://www.w3.org/2000/svg" xmlns:xlink="http://www.w3.org/1999/xlink"
	 x="0px" y="0px" width="283.465px" height="283.465px" viewBox="0 0 283.465 283.465" xml:space="preserve">
<g>
	<path fill="#1A8240" d="M136.565,142.313c-0.797-0.679-1.685-1.244-2.638-1.679c2.98-1.583,4.842-4.684,4.839-8.06
		c0-2.575-0.949-10.947-13.083-10.947h-16.34v17.349h-5.442c-0.706,0.921-2.31,3.132-2.92,4.039h8.362v18.853l16.344,0.003
		c8.854,0,14.352-4.493,14.352-11.749C140.04,146.954,138.844,144.263,136.565,142.313z M113.862,125.827h11.825
		c3.2,0,8.561,0.797,8.561,6.395c0,4.233-3.122,6.754-8.561,6.754h-11.825V125.827z M125.684,157.673h-11.825v-14.648h11.825
		c4.484,0,9.848,1.238,9.848,7.008C135.532,156.678,129.363,157.673,125.684,157.673z"/>
	<path fill="#1A8240" d="M161.298,120.702c-11.306,0-19.206,8.645-19.206,21.025c0,12.397,7.901,21.036,19.206,21.036
		c11.293,0,19.172-8.639,19.172-21.036C180.47,129.347,172.591,120.702,161.298,120.702z M161.298,158.506
		c-8.614,0-14.649-6.903-14.649-16.779s6.034-16.774,14.649-16.774c8.598,0,14.598,6.898,14.598,16.774
		S169.896,158.506,161.298,158.506z"/>
	<polygon fill="#1A8240" points="100.501,121.63 88.996,137.262 77.501,121.63 72.225,121.63 86.333,140.789 70.864,161.867 
		76.161,161.867 89.003,144.425 101.856,161.867 107.15,161.867 91.676,140.789 105.792,121.63 100.501,121.63 	"/>
	<polygon fill="#1A8240" points="205.974,121.63 194.473,137.259 182.97,121.63 177.68,121.63 191.796,140.792 176.34,161.874 
		181.63,161.874 194.473,144.426 207.328,161.874 212.601,161.874 212.601,161.854 197.157,140.789 211.261,121.63 205.974,121.63 	
		"/>
</g>
</svg>
