<?xml version="1.0" encoding="utf-8"?>
<!-- Generator: Adobe Illustrator 16.0.0, SVG Export Plug-In . SVG Version: 6.00 Build 0)  -->
<svg version="1.2" baseProfile="tiny" id="Layer_1" xmlns="http://www.w3.org/2000/svg" xmlns:xlink="http://www.w3.org/1999/xlink"
	 x="0px" y="0px" width="800px" height="800px" viewBox="0 0 800 800" xml:space="preserve">
<path fill="#1A8240" d="M515.035,403.979c-2.684-2.287-5.673-4.19-8.882-5.652c10.034-5.332,16.302-15.77,16.291-27.133
	c0-8.667-3.193-36.856-44.042-36.856h-55.012v58.407h-18.321c-2.376,3.101-7.778,10.544-9.833,13.596h28.154v63.469l55.024,0.012
	c29.805,0,48.316-15.129,48.316-39.554C526.731,419.605,522.706,410.545,515.035,403.979z M438.602,348.479h39.813
	c10.771,0,28.819,2.684,28.819,21.528c0,14.249-10.51,22.738-28.819,22.738h-39.813V348.479z M478.402,455.689h-39.813v-49.313
	h39.813c15.094,0,33.153,4.168,33.153,23.595C511.556,452.343,490.788,455.689,478.402,455.689z"/>
<path fill="#1A8240" d="M598.297,331.225c-38.057,0-64.655,29.104-64.655,70.782c0,41.737,26.599,70.819,64.655,70.819
	c38.021,0,64.548-29.082,64.548-70.819C662.845,360.329,636.318,331.225,598.297,331.225z M598.297,458.493
	c-28.998,0-49.313-23.238-49.313-56.486c0-33.246,20.314-56.472,49.313-56.472c28.949,0,49.147,23.226,49.147,56.472
	C647.444,435.255,627.246,458.493,598.297,458.493z"/>
<g>
	<path fill="#1A8240" d="M393.623,334.348l-38.733,52.627l-38.699-52.627h-17.763l47.497,64.501l-52.081,70.961h17.834
		l43.235-58.719l43.27,58.719h17.823l-52.093-70.961l47.52-64.501H393.623z M748.706,334.348l-38.721,52.615l-38.723-52.615h-17.811
		l47.52,64.513l-52.031,70.972h17.81l43.235-58.741l43.28,58.741h17.752v-0.064l-51.996-70.919l47.484-64.501H748.706z"/>
	<g>
		<path fill="#1A8240" d="M61.563,319.851l-0.107,0.095v0.012c-21.526,21.192-33.631,50.146-33.593,80.351
			c-0.034,24.722,8.079,48.763,23.084,68.407c0.153,0.19,0.392,0.298,0.605,0.19c0.202-0.119,0.214-0.368,0.13-0.581
			c-8.608-26.623,35.397-91.146,58.136-118.196c0.071-0.095,0.168-0.201,0.168-0.331c0-0.155-0.108-0.274-0.214-0.369
			c-38.248-38.069-48.459-29.364-48.316-29.483"/>
		<path fill="#1A8240" d="M220.032,319.851l0.107,0.095v0.012c21.524,21.192,33.624,50.146,33.581,80.351
			c0.034,24.722-8.079,48.763-23.083,68.407c-0.142,0.19-0.392,0.298-0.605,0.19c-0.191-0.119-0.203-0.368-0.132-0.581
			c8.609-26.623-35.361-91.193-58.087-118.255c-0.084-0.094-0.168-0.201-0.168-0.32c0-0.166,0.096-0.285,0.215-0.38
			c38.259-38.068,48.399-29.305,48.268-29.424"/>
		<path fill="#1A8240" d="M140.798,287.375c22.785,0,41.536,6.246,58.824,16.529c0.214,0.106,0.273,0.345,0.189,0.558
			c-0.082,0.202-0.32,0.25-0.546,0.189c-21.86-4.725-55.096,14.166-58.23,16.055c-0.071,0.046-0.143,0.094-0.237,0.094
			c-0.109,0-0.18-0.048-0.251-0.094c-8.335-4.786-39.054-20.887-58.395-15.936c-0.216,0.048-0.453,0.013-0.547-0.201
			c-0.084-0.207-0.003-0.446,0.189-0.559C99.083,293.621,118.069,287.375,140.798,287.375"/>
		<path fill="#1A8240" d="M140.798,377.951c0.13,0,0.272,0.107,0.356,0.178c33.792,25.696,91.632,89.222,73.975,107.188l0.025-0.024
			l-0.013,0.024h-0.023c-20.556,18.041-46.983,27.974-74.333,27.939c-27.354,0.032-53.783-9.899-74.343-27.939l-0.025-0.024
			l0.025,0.024c-17.622-17.967,40.206-81.492,73.962-107.188C140.501,378.058,140.654,377.951,140.798,377.951"/>
	</g>
</g>
<rect x="27.862" y="287.323" fill="none" width="743.155" height="226.313"/>
</svg>
